<svg xmlns="http://www.w3.org/2000/svg" xmlns:xlink="http://www.w3.org/1999/xlink" x="0px" y="0px" width="300.2px" height="119.5px" viewBox="0 0 300.2 119.5" style="enable-background:new 0 0 300.2 119.5;" xml:space="preserve"><style type="text/css">	.st0{fill:#FF214A;}	.st1{fill:#FFFFFF;}	.st2{fill:#FFB0B0;stroke:#FF1E47;stroke-width:8;stroke-miterlimit:10;}	.st3{fill:#FFB0B0;}	.st4{fill:#E05A5A;}	.st5{fill:#AD3737;}	.st6{fill:#D44A4A;}	.st7{fill:#FFBDBD;}	.st8{fill:#FFDEDE;}	.st9{fill:#FA8E8E;}	.st10{fill:#B02323;}	.st11{fill:#ED5F5F;}	.st12{fill:#560A0A;}	.st13{display:none;}	.st14{display:inline;fill:#E0C110;}	.st15{display:inline;fill:#D95E29;}	.st16{fill:#67E05A;}	.st17{fill:#F0775D;}	.st18{fill:#23B02D;}	.st19{fill:#DE1410;}	.st20{fill:#7D673C;}	.st21{fill:#4AD44F;}	.st22{fill:#997E4C;}	.st23{fill:#A98A55;}	.st24{fill:#9FFA8E;}	.st25{fill:#CDAD71;}	.st26{fill:#BDFFBD;}	.st27{opacity:0.9686;fill:#FBC4B4;}	.st28{fill:#DEFFDF;}	.st29{fill:#E4A17C;}	.st30{fill:#B7FFB0;}	.st31{fill:#ECD6A9;}	.st32{display:inline;fill:#FFCC12;}	.st33{fill:#FFCC12;}	.st34{fill:none;stroke:#23B02D;stroke-width:4;stroke-miterlimit:10;}	.st35{fill:#9EFF9E;}	.st36{fill:#B8FFB0;}	.st37{fill:none;stroke:#7D673C;stroke-width:3;stroke-miterlimit:10;}	.st38{fill:#FBC6B6;}	.st39{fill:none;stroke:#23B02D;stroke-width:7;stroke-miterlimit:10;}	.st40{fill:none;stroke:#7D673C;stroke-width:7;stroke-miterlimit:10;}	.st41{fill:url(#SVGID_1_);}	.st42{fill:url(#SVGID_2_);}	.st43{fill:url(#SVGID_3_);}	.st44{fill:url(#SVGID_4_);}	.st45{fill:url(#SVGID_5_);}	.st46{fill:none;stroke:url(#SVGID_6_);stroke-miterlimit:10;}	.st47{fill:none;stroke:url(#SVGID_7_);stroke-miterlimit:10;}	.st48{fill:none;stroke:url(#SVGID_8_);stroke-miterlimit:10;}	.st49{fill:none;stroke:url(#SVGID_9_);stroke-miterlimit:10;}	.st50{fill:none;stroke:url(#SVGID_10_);stroke-miterlimit:10;}	.st51{fill:none;stroke:#E7A713;stroke-width:4;stroke-miterlimit:10;}	.st52{fill:#D79C0C;}	.st53{fill:#EBB618;}	.st54{fill:#E7A713;}	.st55{fill:#F9BA22;}	.st56{fill:#FDD676;}	.st57{fill:#FECD48;}	.st58{fill:#FBCD4E;}	.st59{fill:#FEE9B0;}	.st60{fill:url(#SVGID_11_);}	.st61{fill:url(#SVGID_12_);}	.st62{fill:url(#SVGID_13_);}	.st63{fill:url(#SVGID_14_);}	.st64{fill:url(#SVGID_15_);}	.st65{fill:url(#SVGID_16_);}	.st66{fill:none;stroke:url(#SVGID_17_);stroke-width:8;stroke-miterlimit:10;}	.st67{fill:url(#SVGID_18_);}	.st68{fill:url(#SVGID_19_);}	.st69{fill:url(#SVGID_20_);}	.st70{fill:url(#SVGID_21_);}	.st71{fill:url(#SVGID_22_);}	.st72{fill:url(#SVGID_23_);}	.st73{fill:none;stroke:url(#SVGID_24_);stroke-width:8;stroke-miterlimit:10;}	.st74{fill:none;stroke:#DE1410;stroke-width:3;stroke-miterlimit:10;}	.st75{fill:#EBBBA2;}	.st76{fill:#ECD6A9;stroke:#DE1410;stroke-width:2;stroke-miterlimit:10;}	.st77{fill:#D6C198;}	.st78{fill:#EDE1C7;}	.st79{fill:#DE1410;stroke:#DE1410;stroke-width:3;stroke-miterlimit:10;}	.st80{display:none;fill:#DE1410;stroke:#DE1410;stroke-width:3;stroke-miterlimit:10;}	.st81{fill:none;}	.st82{opacity:0.9804;}	.st83{fill:#BF0E07;}	.st84{fill:#DB1611;}	.st85{fill:#EB0E10;}	.st86{fill:#FF5147;}	.st87{fill:#FFA6A1;}	.st88{fill:#FFCDC9;}	.st89{fill:#F8645E;}	.st90{fill:none;stroke:#BF0E07;stroke-width:7;stroke-miterlimit:10;}	.st91{fill:#F62822;}	.st92{fill:none;stroke:#DE1410;stroke-width:4;stroke-miterlimit:10;}	.st93{fill:url(#SVGID_25_);}	.st94{fill:url(#SVGID_26_);}	.st95{fill:url(#SVGID_27_);}	.st96{fill:url(#SVGID_28_);}	.st97{fill:url(#SVGID_29_);}	.st98{fill:url(#SVGID_44_);}	.st99{fill:none;stroke:url(#SVGID_45_);stroke-width:8;stroke-miterlimit:10;}	.st100{fill:url(#SVGID_46_);}	.st101{fill:none;stroke:url(#SVGID_47_);stroke-width:8;stroke-miterlimit:10;}	.st102{fill:url(#SVGID_48_);}	.st103{fill:url(#SVGID_49_);}	.st104{fill:url(#SVGID_50_);}	.st105{fill:url(#SVGID_51_);}	.st106{fill:url(#SVGID_52_);}	.st107{fill:url(#SVGID_67_);}	.st108{fill:none;stroke:url(#SVGID_68_);stroke-width:8;stroke-miterlimit:10;}	.st109{fill:url(#SVGID_69_);}	.st110{fill:url(#SVGID_70_);}	.st111{fill:url(#SVGID_71_);}	.st112{fill:url(#SVGID_72_);}	.st113{fill:url(#SVGID_73_);}	.st114{fill:url(#SVGID_88_);}	.st115{fill:url(#SVGID_89_);}	.st116{fill:url(#SVGID_90_);}	.st117{fill:url(#SVGID_91_);}	.st118{fill:url(#SVGID_92_);}	.st119{fill:#FBC4B4;}	.st120{fill:#A0844F;}	.st121{fill:#B89B67;}	.st122{fill:#C2A369;}	.st123{fill:#BC5834;}	.st124{fill:#FF1D1B;}	.st125{fill:#C80000;}	.st126{opacity:0.2;}	.st127{fill:#E48550;}	.st128{fill:#FFCBC4;}	.st129{fill:#C7402A;}	.st130{clip-path:url(#SVGID_110_);fill:url(#SVGID_111_);}	.st131{clip-path:url(#SVGID_117_);fill:url(#SVGID_118_);}	.st132{opacity:0.8902;fill:none;stroke:#FF1D1B;stroke-linejoin:bevel;stroke-miterlimit:10;}	.st133{clip-path:url(#SVGID_124_);fill:url(#SVGID_125_);}	.st134{opacity:0.8902;fill:none;stroke:#FF1D1B;stroke-width:2;stroke-linejoin:bevel;stroke-miterlimit:10;}	.st135{clip-path:url(#SVGID_131_);fill:url(#SVGID_132_);}	.st136{clip-path:url(#SVGID_138_);fill:url(#SVGID_139_);}	.st137{fill:#FF3332;}	.st138{clip-path:url(#SVGID_145_);fill:url(#SVGID_146_);}	.st139{clip-path:url(#SVGID_152_);fill:url(#SVGID_153_);}</style><g id="Artboard_1"></g><g id="Artboard_2"></g><g id="Business_Cards_A"></g><g id="Old"></g><g id="Layer_12"></g><g id="Artboard_3">	<g id="Layer_6">	</g>	<g id="SCratchboard">	</g>	<g id="Layer_6_copy">	</g>	<g id="Layer_6_copy_2">	</g>	<g id="Layer_6_copy_3">	</g>	<g id="Layer_6_copy_4">	</g></g><g id="_x32_0240821">	<g>		<polyline class="st134" points="251,113.6 1,113.6 1,42.6 251,42.6   "></polyline>		<g>			<g>				<path class="st125" d="M241.4,107.7v0.9c-2.8,0-5,2.3-5,5.1s2.3,5,5,5.1v0.8h39.5v-11.8H241.4z"></path>			</g>		</g>		<g>			<g>				<g>					<line class="st125" x1="242.3" y1="40.3" x2="214.9" y2="80.2"></line>					<polygon class="st137" points="243.5,41.1 214.9,80.2 241,39.4      "></polygon>				</g>				<g>					<line class="st125" x1="243.8" y1="42.9" x2="196.3" y2="51.8"></line>					<polygon class="st137" points="244.1,44.4 196.3,51.8 243.6,41.5      "></polygon>				</g>				<g>					<line class="st125" x1="243.1" y1="46" x2="203.2" y2="18.6"></line>					<polygon class="st137" points="242.2,47.2 203.2,18.6 243.9,44.7      "></polygon>				</g>				<g>					<line class="st125" x1="240.4" y1="47.5" x2="231.6" y2="0"></line>					<polygon class="st137" points="239,47.8 231.6,0 241.9,47.3      "></polygon>				</g>				<g>					<line class="st125" x1="237.4" y1="46.8" x2="264.8" y2="6.9"></line>					<polygon class="st137" points="236.2,45.9 264.8,6.9 238.7,47.6      "></polygon>				</g>			</g>			<g>				<g>					<polygon class="st137" points="240.3,45.6 227.4,61.8 237.8,44      "></polygon>				</g>				<g>					<polygon class="st137" points="239.9,45.7 224.1,59 237.8,43.5      "></polygon>				</g>				<g>					<polygon class="st137" points="239.5,45.7 221.4,55.6 237.8,43.1      "></polygon>				</g>				<g>					<polygon class="st137" points="239,45.5 219.4,51.8 237.9,42.8      "></polygon>				</g>				<g>					<polygon class="st137" points="238.7,45.3 218.2,47.7 238.1,42.4      "></polygon>				</g>				<g>					<polygon class="st137" points="238.3,45.1 217.8,43.4 238.4,42.1      "></polygon>				</g>				<g>					<polygon class="st137" points="238.1,44.8 218.3,39.1 238.7,41.8      "></polygon>				</g>				<g>					<polygon class="st137" points="237.9,44.4 219.5,34.9 239,41.6      "></polygon>				</g>				<g>					<polygon class="st137" points="237.7,44 221.6,31.1 239.4,41.5      "></polygon>				</g>				<g>					<polygon class="st137" points="237.7,43.6 224.4,27.8 239.8,41.5      "></polygon>				</g>				<g>					<polygon class="st137" points="237.7,43.2 227.7,25.1 240.2,41.5      "></polygon>				</g>				<g>					<polygon class="st137" points="237.8,42.7 231.6,23.1 240.6,41.6      "></polygon>				</g>				<g>					<polygon class="st137" points="238,42.4 235.7,21.9 241,41.8      "></polygon>				</g>				<g>					<polygon class="st137" points="238.3,42 240,21.5 241.3,42.1      "></polygon>				</g>				<g>					<polygon class="st137" points="238.6,41.8 244.3,22 241.5,42.4      "></polygon>				</g>				<g>					<polygon class="st137" points="239,41.6 248.4,23.2 241.7,42.7      "></polygon>				</g>				<g>					<polygon class="st137" points="239.4,41.4 252.2,25.3 241.9,43.1      "></polygon>				</g>				<g>					<polygon class="st137" points="239.8,41.4 255.5,28.1 241.9,43.5      "></polygon>				</g>				<g>					<polygon class="st137" points="240.2,41.4 258.3,31.4 241.9,43.9      "></polygon>				</g>				<g>					<polygon class="st137" points="240.7,45.5 231.2,63.8 237.9,44.3      "></polygon>				</g>			</g>							<ellipse transform="matrix(0.5392 -0.8422 0.8422 0.5392 73.8901 220.5355)" class="st1" cx="238.5" cy="42.7" rx="7.4" ry="4.8"></ellipse>		</g>		<g>							<image style="overflow:visible;opacity:0.5;" width="73" height="83" transform="matrix(1 0 0 1 227.2343 32.4985)">			</image>			<g>				<g class="st126">					<polygon points="249.1,38.6 237.6,63.3 239.7,73.7 247.7,77.8 266.6,59.1 266.4,50.8      "></polygon>					<polygon points="239.8,44.2 249.1,38.6 237.6,63.3 230.3,68.4      "></polygon>					<polygon points="233.2,94.8 230.3,68.4 237.6,63.3 239.7,73.7      "></polygon>					<polygon points="247.7,77.8 275.2,87.9 284.8,82.5 266.6,59.1      "></polygon>					<polygon points="246.2,85.3 247.7,77.8 275.2,87.9 271.2,93.2      "></polygon>					<polygon points="279.3,107.1 271.2,93.2 246.2,85.3 235.5,98.8 240.4,104.2 268.1,110.5      "></polygon>					<polygon points="246.2,85.3 247.7,77.8 239.7,73.7 233.2,94.8 235.5,98.8      "></polygon>					<polygon points="290.6,93.4 279.3,107.1 271.2,93.2 275.2,87.9 284.8,82.5      "></polygon>					<polygon points="296.8,65.2 295.3,84.4 290.6,93.4 284.8,82.5      "></polygon>					<polygon points="281.2,43.1 287.2,48.3 296.8,65.2 284.8,82.5 266.6,59.1 266.4,50.8      "></polygon>					<polygon points="254,35.8 281.2,43.1 266.4,50.8 249.1,38.6      "></polygon>				</g>				<g>					<g>						<polygon class="st127" points="249.1,37.6 237.6,62.3 239.7,72.7 247.7,76.8 266.6,58.1 266.4,49.8       "></polygon>						<polygon class="st128" points="239.8,43.2 249.1,37.6 237.6,62.3 230.3,67.4       "></polygon>						<polygon class="st20" points="233.2,93.8 230.3,67.4 237.6,62.3 239.7,72.7       "></polygon>						<polygon class="st20" points="247.7,76.8 275.2,86.9 284.8,81.5 266.6,58.1       "></polygon>						<polygon class="st31" points="246.2,84.3 247.7,76.8 275.2,86.9 271.2,92.2       "></polygon>						<polygon class="st120" points="279.3,106.1 271.2,92.2 246.2,84.3 235.5,97.8 240.4,103.2 268.1,109.5       "></polygon>						<polygon class="st121" points="246.2,84.3 247.7,76.8 239.7,72.7 233.2,93.8 235.5,97.8       "></polygon>						<polygon class="st122" points="290.6,92.4 279.3,106.1 271.2,92.2 275.2,86.9 284.8,81.5       "></polygon>						<polygon class="st20" points="296.8,64.2 295.3,83.4 290.6,92.4 284.8,81.5       "></polygon>						<polygon class="st120" points="281.2,42.1 287.2,47.3 296.8,64.2 284.8,81.5 266.6,58.1 266.4,49.8       "></polygon>						<polygon class="st129" points="254,34.8 281.2,42.1 266.4,49.8 249.1,37.6       "></polygon>					</g>				</g>			</g>		</g>		<g>							<image style="overflow:visible;opacity:0.6;" width="202" height="53" transform="matrix(1 0 0 1 18.2343 52.4985)">			</image>			<g>				<g>					<defs>						<path id="SVGID_149_" d="M21.6,53.5h13.9c3.8,0,7.2,0.5,10.2,1.5c3,1,5.3,2.4,7,4.3c1.7,1.9,2.5,4.3,2.5,7.3       c0,2.7-0.7,4.9-2.1,6.7s-3.4,3.2-6,4.1c2.4,1.3,4.6,3.7,6.6,7.1c2.1,3.5,4.2,8.4,6.5,14.8H47.2c-1.4-3.8-2.7-6.9-3.8-9.2       c-1.1-2.3-2.2-4.1-3.2-5.2c-1-1.2-2.1-1.9-3.1-2.3c-1.1-0.4-2.2-0.6-3.5-0.6h-0.4v17.3H21.6V53.5z M41.6,72.4       c1.4-1.1,2.1-2.6,2.1-4.5c0-1.9-0.7-3.3-2.1-4.3c-1.4-1-3.3-1.5-5.6-1.5h-2.9v12H36C38.3,74,40.2,73.5,41.6,72.4z M64.7,53.5       h13.9c3.8,0,7.2,0.5,10.2,1.5c3,1,5.3,2.4,7,4.3c1.7,1.9,2.5,4.3,2.5,7.3c0,2.7-0.7,4.9-2.1,6.7c-1.4,1.8-3.4,3.2-6,4.1       c2.4,1.3,4.6,3.7,6.6,7.1c2.1,3.5,4.2,8.4,6.5,14.8H90.4c-1.4-3.8-2.7-6.9-3.8-9.2c-1.1-2.3-2.2-4.1-3.2-5.2       c-1-1.2-2.1-1.9-3.1-2.3c-1.1-0.4-2.2-0.6-3.5-0.6h-0.4v17.3H64.7V53.5z M84.8,72.4c1.4-1.1,2.1-2.6,2.1-4.5       c0-1.9-0.7-3.3-2.1-4.3c-1.4-1-3.3-1.5-5.6-1.5h-2.9v12h2.9C81.5,74,83.3,73.5,84.8,72.4z M132.1,53.5h11.3v29.9       c0,5.2-1.6,9.3-4.8,12.3s-7.7,4.5-13.4,4.5c-5.7,0-10.2-1.5-13.5-4.5s-4.9-7.1-4.9-12.3V53.5h11.5v28.9c0,6,2.2,9,6.7,9       c4.6,0,6.9-2.7,6.9-8V53.5z M151.6,53.5h29.6l-0.9,8.7h-17.1v9.1h13.9V80h-13.9v19.4h-11.5V53.5z M186.9,53.5h29.6l-0.9,8.7       h-17.1v9.1h13.9V80h-13.9v19.4h-11.5V53.5z"></path>					</defs>					<clipPath id="SVGID_1_">						<use xlink:href="#SVGID_149_" style="overflow:visible;"></use>					</clipPath>				</g>				<g>					<defs>						<path id="SVGID_151_" d="M21.6,53.5h13.9c3.8,0,7.2,0.5,10.2,1.5c3,1,5.3,2.4,7,4.3c1.7,1.9,2.5,4.3,2.5,7.3       c0,2.7-0.7,4.9-2.1,6.7s-3.4,3.2-6,4.1c2.4,1.3,4.6,3.7,6.6,7.1c2.1,3.5,4.2,8.4,6.5,14.8H47.2c-1.4-3.8-2.7-6.9-3.8-9.2       c-1.1-2.3-2.2-4.1-3.2-5.2c-1-1.2-2.1-1.9-3.1-2.3c-1.1-0.4-2.2-0.6-3.5-0.6h-0.4v17.3H21.6V53.5z M41.6,72.4       c1.4-1.1,2.1-2.6,2.1-4.5c0-1.9-0.7-3.3-2.1-4.3c-1.4-1-3.3-1.5-5.6-1.5h-2.9v12H36C38.3,74,40.2,73.5,41.6,72.4z M64.7,53.5       h13.9c3.8,0,7.2,0.5,10.2,1.5c3,1,5.3,2.4,7,4.3c1.7,1.9,2.5,4.3,2.5,7.3c0,2.7-0.7,4.9-2.1,6.7c-1.4,1.8-3.4,3.2-6,4.1       c2.4,1.3,4.6,3.7,6.6,7.1c2.1,3.5,4.2,8.4,6.5,14.8H90.4c-1.4-3.8-2.7-6.9-3.8-9.2c-1.1-2.3-2.2-4.1-3.2-5.2       c-1-1.2-2.1-1.9-3.1-2.3c-1.1-0.4-2.2-0.6-3.5-0.6h-0.4v17.3H64.7V53.5z M84.8,72.4c1.4-1.1,2.1-2.6,2.1-4.5       c0-1.9-0.7-3.3-2.1-4.3c-1.4-1-3.3-1.5-5.6-1.5h-2.9v12h2.9C81.5,74,83.3,73.5,84.8,72.4z M132.1,53.5h11.3v29.9       c0,5.2-1.6,9.3-4.8,12.3s-7.7,4.5-13.4,4.5c-5.7,0-10.2-1.5-13.5-4.5s-4.9-7.1-4.9-12.3V53.5h11.5v28.9c0,6,2.2,9,6.7,9       c4.6,0,6.9-2.7,6.9-8V53.5z M151.6,53.5h29.6l-0.9,8.7h-17.1v9.1h13.9V80h-13.9v19.4h-11.5V53.5z M186.9,53.5h29.6l-0.9,8.7       h-17.1v9.1h13.9V80h-13.9v19.4h-11.5V53.5z"></path>					</defs>					<clipPath id="SVGID_2_">						<use xlink:href="#SVGID_151_" style="overflow:visible;"></use>					</clipPath>					<linearGradient id="SVGID_3_" gradientUnits="userSpaceOnUse" x1="119.9349" y1="101.1214" x2="119.9349" y2="52.268">						<stop offset="0" style="stop-color:#E4BE7A"></stop>						<stop offset="0.1856" style="stop-color:#E5BF7E"></stop>						<stop offset="0.2923" style="stop-color:#E7C084"></stop>						<stop offset="0.4201" style="stop-color:#E9C68B"></stop>						<stop offset="0.607" style="stop-color:#F0D59F"></stop>						<stop offset="0.7482" style="stop-color:#F7E4B2"></stop>						<stop offset="0.8806" style="stop-color:#F6E3B0"></stop>						<stop offset="0.9282" style="stop-color:#F3DEA9"></stop>						<stop offset="0.9622" style="stop-color:#EFD69E"></stop>						<stop offset="0.9895" style="stop-color:#E8CA8D"></stop>						<stop offset="1" style="stop-color:#E4C484"></stop>					</linearGradient>					<rect x="20.5" y="52.3" style="clip-path:url(#SVGID_2_);fill:url(#SVGID_3_);" width="199" height="48.9"></rect>				</g>				<g>					<defs>						<path id="SVGID_154_" d="M21.6,53.5h13.9c3.8,0,7.2,0.5,10.2,1.5c3,1,5.3,2.4,7,4.3c1.7,1.9,2.5,4.3,2.5,7.3       c0,2.7-0.7,4.9-2.1,6.7s-3.4,3.2-6,4.1c2.4,1.3,4.6,3.7,6.6,7.1c2.1,3.5,4.2,8.4,6.5,14.8H47.2c-1.4-3.8-2.7-6.9-3.8-9.2       c-1.1-2.3-2.2-4.1-3.2-5.2c-1-1.2-2.1-1.9-3.1-2.3c-1.1-0.4-2.2-0.6-3.5-0.6h-0.4v17.3H21.6V53.5z M41.6,72.4       c1.4-1.1,2.1-2.6,2.1-4.5c0-1.9-0.7-3.3-2.1-4.3c-1.4-1-3.3-1.5-5.6-1.5h-2.9v12H36C38.3,74,40.2,73.5,41.6,72.4z M64.7,53.5       h13.9c3.8,0,7.2,0.5,10.2,1.5c3,1,5.3,2.4,7,4.3c1.7,1.9,2.5,4.3,2.5,7.3c0,2.7-0.7,4.9-2.1,6.7c-1.4,1.8-3.4,3.2-6,4.1       c2.4,1.3,4.6,3.7,6.6,7.1c2.1,3.5,4.2,8.4,6.5,14.8H90.4c-1.4-3.8-2.7-6.9-3.8-9.2c-1.1-2.3-2.2-4.1-3.2-5.2       c-1-1.2-2.1-1.9-3.1-2.3c-1.1-0.4-2.2-0.6-3.5-0.6h-0.4v17.3H64.7V53.5z M84.8,72.4c1.4-1.1,2.1-2.6,2.1-4.5       c0-1.9-0.7-3.3-2.1-4.3c-1.4-1-3.3-1.5-5.6-1.5h-2.9v12h2.9C81.5,74,83.3,73.5,84.8,72.4z M132.1,53.5h11.3v29.9       c0,5.2-1.6,9.3-4.8,12.3s-7.7,4.5-13.4,4.5c-5.7,0-10.2-1.5-13.5-4.5s-4.9-7.1-4.9-12.3V53.5h11.5v28.9c0,6,2.2,9,6.7,9       c4.6,0,6.9-2.7,6.9-8V53.5z M151.6,53.5h29.6l-0.9,8.7h-17.1v9.1h13.9V80h-13.9v19.4h-11.5V53.5z M186.9,53.5h29.6l-0.9,8.7       h-17.1v9.1h13.9V80h-13.9v19.4h-11.5V53.5z"></path>					</defs>					<clipPath id="SVGID_4_">						<use xlink:href="#SVGID_154_" style="overflow:visible;"></use>					</clipPath>				</g>			</g>		</g>	</g></g></svg>